<mxfile host="app.diagrams.net" agent="Mozilla/5.0 (Macintosh; Intel Mac OS X 10_15_7) AppleWebKit/537.36 (KHTML, like Gecko) Chrome/134.0.0.0 YaBrowser/25.4.0.0 Safari/537.36" version="28.0.4">
  <diagram name="Страница — 1" id="HIfl317XoXDZmhjhmT5n">
    <mxGraphModel dx="1447" dy="805" grid="1" gridSize="10" guides="1" tooltips="1" connect="1" arrows="1" fold="1" page="1" pageScale="1" pageWidth="827" pageHeight="1169" math="0" shadow="0">
      <root>
        <mxCell id="0" />
        <mxCell id="1" parent="0" />
        <mxCell id="FdCaWdAvHrMpRD2CG2we-1" value="" style="shape=table;startSize=0;container=1;collapsible=0;childLayout=tableLayout;dashed=1;dashPattern=1 4;" vertex="1" parent="1">
          <mxGeometry x="180" y="230" width="1397" height="514" as="geometry" />
        </mxCell>
        <mxCell id="FdCaWdAvHrMpRD2CG2we-2" value="" style="shape=tableRow;horizontal=0;startSize=0;swimlaneHead=0;swimlaneBody=0;strokeColor=inherit;top=0;left=0;bottom=0;right=0;collapsible=0;dropTarget=0;fillColor=none;points=[[0,0.5],[1,0.5]];portConstraint=eastwest;" vertex="1" parent="FdCaWdAvHrMpRD2CG2we-1">
          <mxGeometry width="1397" height="74" as="geometry" />
        </mxCell>
        <mxCell id="FdCaWdAvHrMpRD2CG2we-3" value="" style="shape=partialRectangle;html=1;whiteSpace=wrap;connectable=0;strokeColor=inherit;overflow=hidden;fillColor=none;top=0;left=0;bottom=0;right=0;pointerEvents=1;" vertex="1" parent="FdCaWdAvHrMpRD2CG2we-2">
          <mxGeometry width="201" height="74" as="geometry">
            <mxRectangle width="201" height="74" as="alternateBounds" />
          </mxGeometry>
        </mxCell>
        <mxCell id="FdCaWdAvHrMpRD2CG2we-4" value="Продажи в сети отделений" style="shape=partialRectangle;html=1;whiteSpace=wrap;connectable=0;strokeColor=inherit;overflow=hidden;fillColor=none;top=0;left=0;bottom=0;right=0;pointerEvents=1;" vertex="1" parent="FdCaWdAvHrMpRD2CG2we-2">
          <mxGeometry x="201" width="199" height="74" as="geometry">
            <mxRectangle width="199" height="74" as="alternateBounds" />
          </mxGeometry>
        </mxCell>
        <mxCell id="FdCaWdAvHrMpRD2CG2we-5" value="Продажи через кол-центр" style="shape=partialRectangle;html=1;whiteSpace=wrap;connectable=0;strokeColor=inherit;overflow=hidden;fillColor=none;top=0;left=0;bottom=0;right=0;pointerEvents=1;" vertex="1" parent="FdCaWdAvHrMpRD2CG2we-2">
          <mxGeometry x="400" width="201" height="74" as="geometry">
            <mxRectangle width="201" height="74" as="alternateBounds" />
          </mxGeometry>
        </mxCell>
        <mxCell id="FdCaWdAvHrMpRD2CG2we-6" value="Digital оповещения клиентов" style="shape=partialRectangle;html=1;whiteSpace=wrap;connectable=0;strokeColor=inherit;overflow=hidden;fillColor=none;top=0;left=0;bottom=0;right=0;pointerEvents=1;" vertex="1" parent="FdCaWdAvHrMpRD2CG2we-2">
          <mxGeometry x="601" width="199" height="74" as="geometry">
            <mxRectangle width="199" height="74" as="alternateBounds" />
          </mxGeometry>
        </mxCell>
        <mxCell id="FdCaWdAvHrMpRD2CG2we-7" value="Обсуживание депозитных процессов" style="shape=partialRectangle;html=1;whiteSpace=wrap;connectable=0;strokeColor=inherit;overflow=hidden;fillColor=none;top=0;left=0;bottom=0;right=0;pointerEvents=1;" vertex="1" parent="FdCaWdAvHrMpRD2CG2we-2">
          <mxGeometry x="800" width="199" height="74" as="geometry">
            <mxRectangle width="199" height="74" as="alternateBounds" />
          </mxGeometry>
        </mxCell>
        <mxCell id="FdCaWdAvHrMpRD2CG2we-8" value="Обсуживание кредитных процессов" style="shape=partialRectangle;html=1;whiteSpace=wrap;connectable=0;strokeColor=inherit;overflow=hidden;fillColor=none;top=0;left=0;bottom=0;right=0;pointerEvents=1;" vertex="1" parent="FdCaWdAvHrMpRD2CG2we-2">
          <mxGeometry x="999" width="199" height="74" as="geometry">
            <mxRectangle width="199" height="74" as="alternateBounds" />
          </mxGeometry>
        </mxCell>
        <mxCell id="FdCaWdAvHrMpRD2CG2we-9" value="Управление договорами" style="shape=partialRectangle;html=1;whiteSpace=wrap;connectable=0;strokeColor=inherit;overflow=hidden;fillColor=none;top=0;left=0;bottom=0;right=0;pointerEvents=1;" vertex="1" parent="FdCaWdAvHrMpRD2CG2we-2">
          <mxGeometry x="1198" width="199" height="74" as="geometry">
            <mxRectangle width="199" height="74" as="alternateBounds" />
          </mxGeometry>
        </mxCell>
        <mxCell id="FdCaWdAvHrMpRD2CG2we-10" value="" style="shape=tableRow;horizontal=0;startSize=0;swimlaneHead=0;swimlaneBody=0;strokeColor=inherit;top=0;left=0;bottom=0;right=0;collapsible=0;dropTarget=0;fillColor=none;points=[[0,0.5],[1,0.5]];portConstraint=eastwest;" vertex="1" parent="FdCaWdAvHrMpRD2CG2we-1">
          <mxGeometry y="74" width="1397" height="72" as="geometry" />
        </mxCell>
        <mxCell id="FdCaWdAvHrMpRD2CG2we-11" value="Управление обслуживанием в сети отделений" style="shape=partialRectangle;html=1;whiteSpace=wrap;connectable=0;strokeColor=inherit;overflow=hidden;fillColor=none;top=0;left=0;bottom=0;right=0;pointerEvents=1;" vertex="1" parent="FdCaWdAvHrMpRD2CG2we-10">
          <mxGeometry width="201" height="72" as="geometry">
            <mxRectangle width="201" height="72" as="alternateBounds" />
          </mxGeometry>
        </mxCell>
        <mxCell id="FdCaWdAvHrMpRD2CG2we-12" value="" style="shape=partialRectangle;html=1;whiteSpace=wrap;connectable=0;strokeColor=inherit;overflow=hidden;fillColor=none;top=0;left=0;bottom=0;right=0;pointerEvents=1;" vertex="1" parent="FdCaWdAvHrMpRD2CG2we-10">
          <mxGeometry x="201" width="199" height="72" as="geometry">
            <mxRectangle width="199" height="72" as="alternateBounds" />
          </mxGeometry>
        </mxCell>
        <mxCell id="FdCaWdAvHrMpRD2CG2we-13" value="" style="shape=partialRectangle;html=1;whiteSpace=wrap;connectable=0;strokeColor=inherit;overflow=hidden;fillColor=none;top=0;left=0;bottom=0;right=0;pointerEvents=1;" vertex="1" parent="FdCaWdAvHrMpRD2CG2we-10">
          <mxGeometry x="400" width="201" height="72" as="geometry">
            <mxRectangle width="201" height="72" as="alternateBounds" />
          </mxGeometry>
        </mxCell>
        <mxCell id="FdCaWdAvHrMpRD2CG2we-14" value="" style="shape=partialRectangle;html=1;whiteSpace=wrap;connectable=0;strokeColor=inherit;overflow=hidden;fillColor=none;top=0;left=0;bottom=0;right=0;pointerEvents=1;" vertex="1" parent="FdCaWdAvHrMpRD2CG2we-10">
          <mxGeometry x="601" width="199" height="72" as="geometry">
            <mxRectangle width="199" height="72" as="alternateBounds" />
          </mxGeometry>
        </mxCell>
        <mxCell id="FdCaWdAvHrMpRD2CG2we-15" value="" style="shape=partialRectangle;html=1;whiteSpace=wrap;connectable=0;strokeColor=inherit;overflow=hidden;fillColor=none;top=0;left=0;bottom=0;right=0;pointerEvents=1;" vertex="1" parent="FdCaWdAvHrMpRD2CG2we-10">
          <mxGeometry x="800" width="199" height="72" as="geometry">
            <mxRectangle width="199" height="72" as="alternateBounds" />
          </mxGeometry>
        </mxCell>
        <mxCell id="FdCaWdAvHrMpRD2CG2we-16" style="shape=partialRectangle;html=1;whiteSpace=wrap;connectable=0;strokeColor=inherit;overflow=hidden;fillColor=none;top=0;left=0;bottom=0;right=0;pointerEvents=1;" vertex="1" parent="FdCaWdAvHrMpRD2CG2we-10">
          <mxGeometry x="999" width="199" height="72" as="geometry">
            <mxRectangle width="199" height="72" as="alternateBounds" />
          </mxGeometry>
        </mxCell>
        <mxCell id="FdCaWdAvHrMpRD2CG2we-17" value="" style="shape=partialRectangle;html=1;whiteSpace=wrap;connectable=0;strokeColor=inherit;overflow=hidden;fillColor=none;top=0;left=0;bottom=0;right=0;pointerEvents=1;" vertex="1" parent="FdCaWdAvHrMpRD2CG2we-10">
          <mxGeometry x="1198" width="199" height="72" as="geometry">
            <mxRectangle width="199" height="72" as="alternateBounds" />
          </mxGeometry>
        </mxCell>
        <mxCell id="FdCaWdAvHrMpRD2CG2we-18" value="" style="shape=tableRow;horizontal=0;startSize=0;swimlaneHead=0;swimlaneBody=0;strokeColor=inherit;top=0;left=0;bottom=0;right=0;collapsible=0;dropTarget=0;fillColor=none;points=[[0,0.5],[1,0.5]];portConstraint=eastwest;" vertex="1" parent="FdCaWdAvHrMpRD2CG2we-1">
          <mxGeometry y="146" width="1397" height="72" as="geometry" />
        </mxCell>
        <mxCell id="FdCaWdAvHrMpRD2CG2we-19" value="Управление депозитными продуктами" style="shape=partialRectangle;html=1;whiteSpace=wrap;connectable=0;strokeColor=inherit;overflow=hidden;fillColor=none;top=0;left=0;bottom=0;right=0;pointerEvents=1;" vertex="1" parent="FdCaWdAvHrMpRD2CG2we-18">
          <mxGeometry width="201" height="72" as="geometry">
            <mxRectangle width="201" height="72" as="alternateBounds" />
          </mxGeometry>
        </mxCell>
        <mxCell id="FdCaWdAvHrMpRD2CG2we-20" value="" style="shape=partialRectangle;html=1;whiteSpace=wrap;connectable=0;strokeColor=inherit;overflow=hidden;fillColor=none;top=0;left=0;bottom=0;right=0;pointerEvents=1;" vertex="1" parent="FdCaWdAvHrMpRD2CG2we-18">
          <mxGeometry x="201" width="199" height="72" as="geometry">
            <mxRectangle width="199" height="72" as="alternateBounds" />
          </mxGeometry>
        </mxCell>
        <mxCell id="FdCaWdAvHrMpRD2CG2we-21" value="" style="shape=partialRectangle;html=1;whiteSpace=wrap;connectable=0;strokeColor=inherit;overflow=hidden;fillColor=none;top=0;left=0;bottom=0;right=0;pointerEvents=1;" vertex="1" parent="FdCaWdAvHrMpRD2CG2we-18">
          <mxGeometry x="400" width="201" height="72" as="geometry">
            <mxRectangle width="201" height="72" as="alternateBounds" />
          </mxGeometry>
        </mxCell>
        <mxCell id="FdCaWdAvHrMpRD2CG2we-22" value="" style="shape=partialRectangle;html=1;whiteSpace=wrap;connectable=0;strokeColor=inherit;overflow=hidden;fillColor=none;top=0;left=0;bottom=0;right=0;pointerEvents=1;" vertex="1" parent="FdCaWdAvHrMpRD2CG2we-18">
          <mxGeometry x="601" width="199" height="72" as="geometry">
            <mxRectangle width="199" height="72" as="alternateBounds" />
          </mxGeometry>
        </mxCell>
        <mxCell id="FdCaWdAvHrMpRD2CG2we-23" style="shape=partialRectangle;html=1;whiteSpace=wrap;connectable=0;strokeColor=inherit;overflow=hidden;fillColor=none;top=0;left=0;bottom=0;right=0;pointerEvents=1;" vertex="1" parent="FdCaWdAvHrMpRD2CG2we-18">
          <mxGeometry x="800" width="199" height="72" as="geometry">
            <mxRectangle width="199" height="72" as="alternateBounds" />
          </mxGeometry>
        </mxCell>
        <mxCell id="FdCaWdAvHrMpRD2CG2we-24" value="" style="shape=partialRectangle;html=1;whiteSpace=wrap;connectable=0;strokeColor=inherit;overflow=hidden;fillColor=none;top=0;left=0;bottom=0;right=0;pointerEvents=1;" vertex="1" parent="FdCaWdAvHrMpRD2CG2we-18">
          <mxGeometry x="999" width="199" height="72" as="geometry">
            <mxRectangle width="199" height="72" as="alternateBounds" />
          </mxGeometry>
        </mxCell>
        <mxCell id="FdCaWdAvHrMpRD2CG2we-25" value="" style="shape=partialRectangle;html=1;whiteSpace=wrap;connectable=0;strokeColor=inherit;overflow=hidden;fillColor=none;top=0;left=0;bottom=0;right=0;pointerEvents=1;" vertex="1" parent="FdCaWdAvHrMpRD2CG2we-18">
          <mxGeometry x="1198" width="199" height="72" as="geometry">
            <mxRectangle width="199" height="72" as="alternateBounds" />
          </mxGeometry>
        </mxCell>
        <mxCell id="FdCaWdAvHrMpRD2CG2we-26" value="" style="shape=tableRow;horizontal=0;startSize=0;swimlaneHead=0;swimlaneBody=0;strokeColor=inherit;top=0;left=0;bottom=0;right=0;collapsible=0;dropTarget=0;fillColor=none;points=[[0,0.5],[1,0.5]];portConstraint=eastwest;" vertex="1" parent="FdCaWdAvHrMpRD2CG2we-1">
          <mxGeometry y="218" width="1397" height="74" as="geometry" />
        </mxCell>
        <mxCell id="FdCaWdAvHrMpRD2CG2we-27" value="Управление кредитными продуктами" style="shape=partialRectangle;html=1;whiteSpace=wrap;connectable=0;strokeColor=inherit;overflow=hidden;fillColor=none;top=0;left=0;bottom=0;right=0;pointerEvents=1;" vertex="1" parent="FdCaWdAvHrMpRD2CG2we-26">
          <mxGeometry width="201" height="74" as="geometry">
            <mxRectangle width="201" height="74" as="alternateBounds" />
          </mxGeometry>
        </mxCell>
        <mxCell id="FdCaWdAvHrMpRD2CG2we-28" value="" style="shape=partialRectangle;html=1;whiteSpace=wrap;connectable=0;strokeColor=inherit;overflow=hidden;fillColor=none;top=0;left=0;bottom=0;right=0;pointerEvents=1;" vertex="1" parent="FdCaWdAvHrMpRD2CG2we-26">
          <mxGeometry x="201" width="199" height="74" as="geometry">
            <mxRectangle width="199" height="74" as="alternateBounds" />
          </mxGeometry>
        </mxCell>
        <mxCell id="FdCaWdAvHrMpRD2CG2we-29" value="" style="shape=partialRectangle;html=1;whiteSpace=wrap;connectable=0;strokeColor=inherit;overflow=hidden;fillColor=none;top=0;left=0;bottom=0;right=0;pointerEvents=1;" vertex="1" parent="FdCaWdAvHrMpRD2CG2we-26">
          <mxGeometry x="400" width="201" height="74" as="geometry">
            <mxRectangle width="201" height="74" as="alternateBounds" />
          </mxGeometry>
        </mxCell>
        <mxCell id="FdCaWdAvHrMpRD2CG2we-30" value="" style="shape=partialRectangle;html=1;whiteSpace=wrap;connectable=0;strokeColor=inherit;overflow=hidden;fillColor=none;top=0;left=0;bottom=0;right=0;pointerEvents=1;" vertex="1" parent="FdCaWdAvHrMpRD2CG2we-26">
          <mxGeometry x="601" width="199" height="74" as="geometry">
            <mxRectangle width="199" height="74" as="alternateBounds" />
          </mxGeometry>
        </mxCell>
        <mxCell id="FdCaWdAvHrMpRD2CG2we-31" value="" style="shape=partialRectangle;html=1;whiteSpace=wrap;connectable=0;strokeColor=inherit;overflow=hidden;fillColor=none;top=0;left=0;bottom=0;right=0;pointerEvents=1;" vertex="1" parent="FdCaWdAvHrMpRD2CG2we-26">
          <mxGeometry x="800" width="199" height="74" as="geometry">
            <mxRectangle width="199" height="74" as="alternateBounds" />
          </mxGeometry>
        </mxCell>
        <mxCell id="FdCaWdAvHrMpRD2CG2we-32" value="" style="shape=partialRectangle;html=1;whiteSpace=wrap;connectable=0;strokeColor=inherit;overflow=hidden;fillColor=none;top=0;left=0;bottom=0;right=0;pointerEvents=1;" vertex="1" parent="FdCaWdAvHrMpRD2CG2we-26">
          <mxGeometry x="999" width="199" height="74" as="geometry">
            <mxRectangle width="199" height="74" as="alternateBounds" />
          </mxGeometry>
        </mxCell>
        <mxCell id="FdCaWdAvHrMpRD2CG2we-33" value="" style="shape=partialRectangle;html=1;whiteSpace=wrap;connectable=0;strokeColor=inherit;overflow=hidden;fillColor=none;top=0;left=0;bottom=0;right=0;pointerEvents=1;" vertex="1" parent="FdCaWdAvHrMpRD2CG2we-26">
          <mxGeometry x="1198" width="199" height="74" as="geometry">
            <mxRectangle width="199" height="74" as="alternateBounds" />
          </mxGeometry>
        </mxCell>
        <mxCell id="FdCaWdAvHrMpRD2CG2we-34" value="" style="shape=tableRow;horizontal=0;startSize=0;swimlaneHead=0;swimlaneBody=0;strokeColor=inherit;top=0;left=0;bottom=0;right=0;collapsible=0;dropTarget=0;fillColor=none;points=[[0,0.5],[1,0.5]];portConstraint=eastwest;" vertex="1" parent="FdCaWdAvHrMpRD2CG2we-1">
          <mxGeometry y="292" width="1397" height="74" as="geometry" />
        </mxCell>
        <mxCell id="FdCaWdAvHrMpRD2CG2we-35" value="IT-отдел" style="shape=partialRectangle;html=1;whiteSpace=wrap;connectable=0;strokeColor=inherit;overflow=hidden;fillColor=none;top=0;left=0;bottom=0;right=0;pointerEvents=1;" vertex="1" parent="FdCaWdAvHrMpRD2CG2we-34">
          <mxGeometry width="201" height="74" as="geometry">
            <mxRectangle width="201" height="74" as="alternateBounds" />
          </mxGeometry>
        </mxCell>
        <mxCell id="FdCaWdAvHrMpRD2CG2we-36" value="" style="shape=partialRectangle;html=1;whiteSpace=wrap;connectable=0;strokeColor=inherit;overflow=hidden;fillColor=none;top=0;left=0;bottom=0;right=0;pointerEvents=1;" vertex="1" parent="FdCaWdAvHrMpRD2CG2we-34">
          <mxGeometry x="201" width="199" height="74" as="geometry">
            <mxRectangle width="199" height="74" as="alternateBounds" />
          </mxGeometry>
        </mxCell>
        <mxCell id="FdCaWdAvHrMpRD2CG2we-37" value="" style="shape=partialRectangle;html=1;whiteSpace=wrap;connectable=0;strokeColor=inherit;overflow=hidden;fillColor=none;top=0;left=0;bottom=0;right=0;pointerEvents=1;" vertex="1" parent="FdCaWdAvHrMpRD2CG2we-34">
          <mxGeometry x="400" width="201" height="74" as="geometry">
            <mxRectangle width="201" height="74" as="alternateBounds" />
          </mxGeometry>
        </mxCell>
        <mxCell id="FdCaWdAvHrMpRD2CG2we-38" value="" style="shape=partialRectangle;html=1;whiteSpace=wrap;connectable=0;strokeColor=inherit;overflow=hidden;fillColor=none;top=0;left=0;bottom=0;right=0;pointerEvents=1;" vertex="1" parent="FdCaWdAvHrMpRD2CG2we-34">
          <mxGeometry x="601" width="199" height="74" as="geometry">
            <mxRectangle width="199" height="74" as="alternateBounds" />
          </mxGeometry>
        </mxCell>
        <mxCell id="FdCaWdAvHrMpRD2CG2we-39" value="" style="shape=partialRectangle;html=1;whiteSpace=wrap;connectable=0;strokeColor=inherit;overflow=hidden;fillColor=none;top=0;left=0;bottom=0;right=0;pointerEvents=1;" vertex="1" parent="FdCaWdAvHrMpRD2CG2we-34">
          <mxGeometry x="800" width="199" height="74" as="geometry">
            <mxRectangle width="199" height="74" as="alternateBounds" />
          </mxGeometry>
        </mxCell>
        <mxCell id="FdCaWdAvHrMpRD2CG2we-40" value="" style="shape=partialRectangle;html=1;whiteSpace=wrap;connectable=0;strokeColor=inherit;overflow=hidden;fillColor=none;top=0;left=0;bottom=0;right=0;pointerEvents=1;" vertex="1" parent="FdCaWdAvHrMpRD2CG2we-34">
          <mxGeometry x="999" width="199" height="74" as="geometry">
            <mxRectangle width="199" height="74" as="alternateBounds" />
          </mxGeometry>
        </mxCell>
        <mxCell id="FdCaWdAvHrMpRD2CG2we-41" style="shape=partialRectangle;html=1;whiteSpace=wrap;connectable=0;strokeColor=inherit;overflow=hidden;fillColor=none;top=0;left=0;bottom=0;right=0;pointerEvents=1;" vertex="1" parent="FdCaWdAvHrMpRD2CG2we-34">
          <mxGeometry x="1198" width="199" height="74" as="geometry">
            <mxRectangle width="199" height="74" as="alternateBounds" />
          </mxGeometry>
        </mxCell>
        <mxCell id="FdCaWdAvHrMpRD2CG2we-42" style="shape=tableRow;horizontal=0;startSize=0;swimlaneHead=0;swimlaneBody=0;strokeColor=inherit;top=0;left=0;bottom=0;right=0;collapsible=0;dropTarget=0;fillColor=none;points=[[0,0.5],[1,0.5]];portConstraint=eastwest;" vertex="1" parent="FdCaWdAvHrMpRD2CG2we-1">
          <mxGeometry y="366" width="1397" height="74" as="geometry" />
        </mxCell>
        <mxCell id="FdCaWdAvHrMpRD2CG2we-43" value="Кол-центр" style="shape=partialRectangle;html=1;whiteSpace=wrap;connectable=0;strokeColor=inherit;overflow=hidden;fillColor=none;top=0;left=0;bottom=0;right=0;pointerEvents=1;" vertex="1" parent="FdCaWdAvHrMpRD2CG2we-42">
          <mxGeometry width="201" height="74" as="geometry">
            <mxRectangle width="201" height="74" as="alternateBounds" />
          </mxGeometry>
        </mxCell>
        <mxCell id="FdCaWdAvHrMpRD2CG2we-44" style="shape=partialRectangle;html=1;whiteSpace=wrap;connectable=0;strokeColor=inherit;overflow=hidden;fillColor=none;top=0;left=0;bottom=0;right=0;pointerEvents=1;" vertex="1" parent="FdCaWdAvHrMpRD2CG2we-42">
          <mxGeometry x="201" width="199" height="74" as="geometry">
            <mxRectangle width="199" height="74" as="alternateBounds" />
          </mxGeometry>
        </mxCell>
        <mxCell id="FdCaWdAvHrMpRD2CG2we-45" value="" style="shape=partialRectangle;html=1;whiteSpace=wrap;connectable=0;strokeColor=inherit;overflow=hidden;fillColor=none;top=0;left=0;bottom=0;right=0;pointerEvents=1;" vertex="1" parent="FdCaWdAvHrMpRD2CG2we-42">
          <mxGeometry x="400" width="201" height="74" as="geometry">
            <mxRectangle width="201" height="74" as="alternateBounds" />
          </mxGeometry>
        </mxCell>
        <mxCell id="FdCaWdAvHrMpRD2CG2we-46" style="shape=partialRectangle;html=1;whiteSpace=wrap;connectable=0;strokeColor=inherit;overflow=hidden;fillColor=none;top=0;left=0;bottom=0;right=0;pointerEvents=1;" vertex="1" parent="FdCaWdAvHrMpRD2CG2we-42">
          <mxGeometry x="601" width="199" height="74" as="geometry">
            <mxRectangle width="199" height="74" as="alternateBounds" />
          </mxGeometry>
        </mxCell>
        <mxCell id="FdCaWdAvHrMpRD2CG2we-47" value="" style="shape=partialRectangle;html=1;whiteSpace=wrap;connectable=0;strokeColor=inherit;overflow=hidden;fillColor=none;top=0;left=0;bottom=0;right=0;pointerEvents=1;" vertex="1" parent="FdCaWdAvHrMpRD2CG2we-42">
          <mxGeometry x="800" width="199" height="74" as="geometry">
            <mxRectangle width="199" height="74" as="alternateBounds" />
          </mxGeometry>
        </mxCell>
        <mxCell id="FdCaWdAvHrMpRD2CG2we-48" value="" style="shape=partialRectangle;html=1;whiteSpace=wrap;connectable=0;strokeColor=inherit;overflow=hidden;fillColor=none;top=0;left=0;bottom=0;right=0;pointerEvents=1;" vertex="1" parent="FdCaWdAvHrMpRD2CG2we-42">
          <mxGeometry x="999" width="199" height="74" as="geometry">
            <mxRectangle width="199" height="74" as="alternateBounds" />
          </mxGeometry>
        </mxCell>
        <mxCell id="FdCaWdAvHrMpRD2CG2we-49" style="shape=partialRectangle;html=1;whiteSpace=wrap;connectable=0;strokeColor=inherit;overflow=hidden;fillColor=none;top=0;left=0;bottom=0;right=0;pointerEvents=1;" vertex="1" parent="FdCaWdAvHrMpRD2CG2we-42">
          <mxGeometry x="1198" width="199" height="74" as="geometry">
            <mxRectangle width="199" height="74" as="alternateBounds" />
          </mxGeometry>
        </mxCell>
        <mxCell id="FdCaWdAvHrMpRD2CG2we-50" value="" style="shape=tableRow;horizontal=0;startSize=0;swimlaneHead=0;swimlaneBody=0;strokeColor=inherit;top=0;left=0;bottom=0;right=0;collapsible=0;dropTarget=0;fillColor=none;points=[[0,0.5],[1,0.5]];portConstraint=eastwest;" vertex="1" parent="FdCaWdAvHrMpRD2CG2we-1">
          <mxGeometry y="440" width="1397" height="74" as="geometry" />
        </mxCell>
        <mxCell id="FdCaWdAvHrMpRD2CG2we-51" value="Команда цифровой трансформации" style="shape=partialRectangle;html=1;whiteSpace=wrap;connectable=0;strokeColor=inherit;overflow=hidden;fillColor=none;top=0;left=0;bottom=0;right=0;pointerEvents=1;" vertex="1" parent="FdCaWdAvHrMpRD2CG2we-50">
          <mxGeometry width="201" height="74" as="geometry">
            <mxRectangle width="201" height="74" as="alternateBounds" />
          </mxGeometry>
        </mxCell>
        <mxCell id="FdCaWdAvHrMpRD2CG2we-52" value="" style="shape=partialRectangle;html=1;whiteSpace=wrap;connectable=0;strokeColor=inherit;overflow=hidden;fillColor=none;top=0;left=0;bottom=0;right=0;pointerEvents=1;" vertex="1" parent="FdCaWdAvHrMpRD2CG2we-50">
          <mxGeometry x="201" width="199" height="74" as="geometry">
            <mxRectangle width="199" height="74" as="alternateBounds" />
          </mxGeometry>
        </mxCell>
        <mxCell id="FdCaWdAvHrMpRD2CG2we-53" value="" style="shape=partialRectangle;html=1;whiteSpace=wrap;connectable=0;strokeColor=inherit;overflow=hidden;fillColor=none;top=0;left=0;bottom=0;right=0;pointerEvents=1;" vertex="1" parent="FdCaWdAvHrMpRD2CG2we-50">
          <mxGeometry x="400" width="201" height="74" as="geometry">
            <mxRectangle width="201" height="74" as="alternateBounds" />
          </mxGeometry>
        </mxCell>
        <mxCell id="FdCaWdAvHrMpRD2CG2we-54" value="" style="shape=partialRectangle;html=1;whiteSpace=wrap;connectable=0;strokeColor=inherit;overflow=hidden;fillColor=none;top=0;left=0;bottom=0;right=0;pointerEvents=1;" vertex="1" parent="FdCaWdAvHrMpRD2CG2we-50">
          <mxGeometry x="601" width="199" height="74" as="geometry">
            <mxRectangle width="199" height="74" as="alternateBounds" />
          </mxGeometry>
        </mxCell>
        <mxCell id="FdCaWdAvHrMpRD2CG2we-55" value="" style="shape=partialRectangle;html=1;whiteSpace=wrap;connectable=0;strokeColor=inherit;overflow=hidden;fillColor=none;top=0;left=0;bottom=0;right=0;pointerEvents=1;" vertex="1" parent="FdCaWdAvHrMpRD2CG2we-50">
          <mxGeometry x="800" width="199" height="74" as="geometry">
            <mxRectangle width="199" height="74" as="alternateBounds" />
          </mxGeometry>
        </mxCell>
        <mxCell id="FdCaWdAvHrMpRD2CG2we-56" value="" style="shape=partialRectangle;html=1;whiteSpace=wrap;connectable=0;strokeColor=inherit;overflow=hidden;fillColor=none;top=0;left=0;bottom=0;right=0;pointerEvents=1;" vertex="1" parent="FdCaWdAvHrMpRD2CG2we-50">
          <mxGeometry x="999" width="199" height="74" as="geometry">
            <mxRectangle width="199" height="74" as="alternateBounds" />
          </mxGeometry>
        </mxCell>
        <mxCell id="FdCaWdAvHrMpRD2CG2we-57" value="" style="shape=partialRectangle;html=1;whiteSpace=wrap;connectable=0;strokeColor=inherit;overflow=hidden;fillColor=none;top=0;left=0;bottom=0;right=0;pointerEvents=1;" vertex="1" parent="FdCaWdAvHrMpRD2CG2we-50">
          <mxGeometry x="1198" width="199" height="74" as="geometry">
            <mxRectangle width="199" height="74" as="alternateBounds" />
          </mxGeometry>
        </mxCell>
        <mxCell id="FdCaWdAvHrMpRD2CG2we-58" value="&lt;div&gt;&lt;font style=&quot;font-size: 20px;&quot;&gt;АБС&lt;/font&gt;&lt;/div&gt;" style="rounded=1;whiteSpace=wrap;html=1;fillColor=#6d8764;fontColor=#ffffff;strokeColor=#3A5431;" vertex="1" parent="1">
          <mxGeometry x="930" y="320" width="630" height="330" as="geometry" />
        </mxCell>
        <mxCell id="FdCaWdAvHrMpRD2CG2we-59" value="&lt;font style=&quot;font-size: 18px;&quot;&gt;Система call-центра&lt;/font&gt;" style="rounded=1;whiteSpace=wrap;html=1;fillColor=#e51400;fontColor=#ffffff;strokeColor=#B20000;" vertex="1" parent="1">
          <mxGeometry x="590" y="600" width="180" height="60" as="geometry" />
        </mxCell>
        <mxCell id="FdCaWdAvHrMpRD2CG2we-61" value="&lt;font style=&quot;font-size: 18px;&quot;&gt;Телеком - оператор&lt;/font&gt;" style="rounded=1;whiteSpace=wrap;html=1;fillColor=#1ba1e2;fontColor=#ffffff;strokeColor=#006EAF;" vertex="1" parent="1">
          <mxGeometry x="820" y="320" width="90" height="330" as="geometry" />
        </mxCell>
        <mxCell id="FdCaWdAvHrMpRD2CG2we-62" value="&lt;div&gt;&lt;font style=&quot;font-size: 20px;&quot;&gt;АБС&lt;/font&gt;&lt;/div&gt;" style="rounded=1;whiteSpace=wrap;html=1;fillColor=#6d8764;fontColor=#ffffff;strokeColor=#3A5431;" vertex="1" parent="1">
          <mxGeometry x="390" y="310" width="80" height="200" as="geometry" />
        </mxCell>
        <mxCell id="FdCaWdAvHrMpRD2CG2we-63" value="&lt;span style=&quot;font-size: 20px;&quot;&gt;SMS-шлюз&lt;/span&gt;" style="rounded=1;whiteSpace=wrap;html=1;fillColor=#76608a;fontColor=#ffffff;strokeColor=#432D57;" vertex="1" parent="1">
          <mxGeometry x="490" y="310" width="180" height="200" as="geometry" />
        </mxCell>
        <mxCell id="FdCaWdAvHrMpRD2CG2we-64" value="&lt;div&gt;&lt;font style=&quot;font-size: 20px;&quot;&gt;АБС&lt;/font&gt;&lt;/div&gt;" style="rounded=1;whiteSpace=wrap;html=1;fillColor=#6d8764;fontColor=#ffffff;strokeColor=#3A5431;" vertex="1" parent="1">
          <mxGeometry x="690" y="310" width="80" height="200" as="geometry" />
        </mxCell>
        <mxCell id="FdCaWdAvHrMpRD2CG2we-65" value="&lt;font style=&quot;font-size: 26px;&quot;&gt;Карта текущего IT ландшафта&lt;/font&gt;" style="text;strokeColor=none;fillColor=none;align=left;verticalAlign=middle;spacingLeft=4;spacingRight=4;overflow=hidden;points=[[0,0.5],[1,0.5]];portConstraint=eastwest;rotatable=0;whiteSpace=wrap;html=1;" vertex="1" parent="1">
          <mxGeometry x="620" y="160" width="410" height="40" as="geometry" />
        </mxCell>
      </root>
    </mxGraphModel>
  </diagram>
</mxfile>
